<?xml version="1.0" standalone="no"?>
<!DOCTYPE svg PUBLIC "-//W3C//DTD SVG 20010904//EN"
 "http://www.w3.org/TR/2001/REC-SVG-20010904/DTD/svg10.dtd">
<svg version="1.0" xmlns="http://www.w3.org/2000/svg"
 width="161.000000pt" height="109.000000pt" viewBox="0 0 161.000000 109.000000"
 preserveAspectRatio="xMidYMid meet">

<g transform="translate(0.000000,109.000000) scale(0.100000,-0.100000)"
fill="#000000" stroke="none">
<path d="M68 1063 l-58 -4 0 -521 0 -521 293 6 c311 5 357 11 455 61 59 30
127 102 155 164 30 68 29 189 -2 255 -33 68 -118 142 -189 164 -31 9 -58 18
-60 18 -1 1 13 18 32 38 43 46 60 95 53 160 -2 27 -1 43 3 36 4 -8 96 -212
204 -454 200 -447 212 -473 219 -465 13 17 411 1011 414 1038 5 29 3 32 -20
32 -22 0 -29 -8 -47 -57 -51 -140 -194 -493 -200 -493 -3 0 -57 121 -120 270
-104 246 -116 270 -141 275 -26 6 -361 -3 -367 -10 -2 -2 6 -21 17 -44 29 -55
26 -60 -11 -24 -62 58 -89 66 -268 74 -166 8 -256 8 -362 2z m460 -53 c108
-15 162 -68 162 -157 0 -93 -54 -145 -160 -153 -58 -4 -65 -7 -68 -27 -2 -14
2 -23 10 -23 7 -1 49 -2 93 -4 189 -6 294 -92 311 -254 9 -79 -13 -139 -73
-203 -74 -79 -214 -125 -359 -117 l-59 3 -3 460 c-1 253 0 466 3 473 5 14 55
15 143 2z"/>
</g>
</svg>
